<svg width="520" height="252" viewBox="0 0 520 252" fill="none" xmlns="http://www.w3.org/2000/svg">
<g clip-path="url(#clip0_1905_7594)">
<path d="M371.561 248.262C366.184 243.718 362.918 236.541 363.774 229.553C364.631 222.566 369.936 216.142 376.818 214.658C383.699 213.174 391.544 217.282 393.634 224.004C394.784 211.044 396.11 197.541 403.001 186.504C409.24 176.51 420.046 169.359 431.758 168.08C443.47 166.801 455.8 171.632 463.105 180.876C470.409 190.12 472.197 203.559 467.082 214.172C463.313 221.99 456.37 227.808 449.096 232.541C425.589 247.708 397.396 253.876 369.704 249.91L371.561 248.262Z" fill="#c8ffd1"/>
<path d="M451.523 171.9C441.86 179.771 432.994 188.575 425.055 198.183C412.631 213.168 402.577 229.969 395.244 248C394.707 249.316 396.843 249.888 397.374 248.588C409.372 219.282 428.527 193.453 453.085 173.462C454.188 172.564 452.617 171.009 451.523 171.9Z" fill="white"/>
<path d="M185.205 247.028C192.59 240.787 197.076 230.929 195.9 221.331C194.723 211.734 187.437 202.911 177.985 200.873C168.533 198.835 157.759 204.477 154.888 213.71C153.308 195.909 151.487 177.362 142.023 162.203C133.453 148.477 118.611 138.655 102.525 136.898C86.4387 135.141 69.5021 141.777 59.4698 154.474C49.4375 167.17 46.9812 185.628 54.0075 200.205C59.1836 210.943 68.7197 218.934 78.7112 225.436C110.588 246.178 150.13 254.828 187.755 249.291" fill="#c8ffd1"/>
<path d="M75.378 142.144C88.651 152.955 100.828 165.046 111.732 178.243C122.637 191.426 132.239 205.636 140.401 220.673C144.963 229.108 149.061 237.786 152.677 246.668C153.415 248.475 150.481 249.261 149.752 247.474C143.347 231.816 135.422 216.822 126.092 202.71C116.808 188.648 106.181 175.52 94.3611 163.51C87.6759 156.721 80.6224 150.304 73.2326 144.289C71.7179 143.056 73.8758 140.921 75.378 142.144Z" fill="white"/>
<path d="M351.482 250.552H175.275V69.7586C175.275 31.2935 206.569 0 245.034 0H281.724C320.189 0 351.482 31.2935 351.482 69.7586V250.552Z" fill="#c8ffd1"/>
<path d="M314.793 250.552H175.276V69.7587C175.237 55.0198 179.904 40.6533 188.598 28.7511C188.918 28.3143 189.238 27.8832 189.567 27.4567C193.772 21.9417 198.776 17.0847 204.414 13.0461C204.733 12.8144 205.052 12.5867 205.377 12.359C210.095 9.09428 215.198 6.42546 220.57 4.41326C220.889 4.29233 221.214 4.17116 221.539 4.05495C226.398 2.32092 231.435 1.13311 236.557 0.51347C236.875 0.470094 237.201 0.436152 237.527 0.40221C242.518 -0.131466 247.552 -0.131466 252.543 0.40221C252.868 0.436152 253.194 0.47009 253.515 0.513934C258.636 1.13362 263.671 2.32128 268.529 4.05497C268.854 4.17119 269.179 4.29234 269.499 4.41351C274.805 6.40033 279.849 9.02933 284.516 12.2418C284.84 12.4646 285.165 12.6923 285.485 12.92C288.645 15.1758 291.613 17.6889 294.359 20.4337C296.562 22.6352 298.614 24.982 300.502 27.4582C300.831 27.8832 301.15 28.3143 301.47 28.7504C310.164 40.6528 314.831 55.0195 314.793 69.7587V250.552Z" fill="#3D4752"/>
<path d="M303.449 169.689C307.715 169.689 311.173 166.231 311.173 161.965C311.173 157.699 307.715 154.241 303.449 154.241C299.183 154.241 295.725 157.699 295.725 161.965C295.725 166.231 299.183 169.689 303.449 169.689Z" fill="#00c05f"/>
<path d="M337.047 245.136H331.128L328.312 222.308L337.048 222.308L337.047 245.136Z" fill="#FFB8B8"/>
<path d="M326.902 243.445H338.316V250.632H319.715C319.715 249.688 319.901 248.754 320.262 247.882C320.623 247.01 321.152 246.218 321.82 245.55C322.487 244.883 323.279 244.354 324.151 243.992C325.023 243.631 325.958 243.445 326.902 243.445Z" fill="#2F2E41"/>
<path d="M366.496 245.136H360.578L357.762 222.308L366.497 222.308L366.496 245.136Z" fill="#FFB8B8"/>
<path d="M356.349 243.445H367.763V250.632H349.162C349.162 249.688 349.348 248.754 349.709 247.882C350.07 247.01 350.6 246.218 351.267 245.55C351.934 244.883 352.727 244.354 353.599 243.992C354.471 243.631 355.405 243.445 356.349 243.445Z" fill="#2F2E41"/>
<path d="M307.358 163.496C306.932 162.868 306.649 162.155 306.529 161.407C306.408 160.658 306.453 159.892 306.661 159.163C306.869 158.434 307.234 157.759 307.73 157.186C308.227 156.613 308.843 156.156 309.535 155.847L329.655 100.395L339.555 105.797L316.583 158.79C317.025 159.988 317.012 161.306 316.547 162.494C316.082 163.683 315.198 164.66 314.061 165.24C312.923 165.82 311.613 165.963 310.378 165.642C309.142 165.32 308.068 164.557 307.358 163.496Z" fill="#FFB8B8"/>
<path d="M363.473 173.915C362.815 173.538 362.248 173.021 361.812 172.401C361.376 171.781 361.08 171.073 360.947 170.327C360.814 169.58 360.846 168.814 361.041 168.081C361.236 167.349 361.59 166.668 362.077 166.086L355.844 107.427L367.11 107.941L369.701 165.641C370.623 166.523 371.189 167.714 371.293 168.986C371.396 170.258 371.03 171.524 370.262 172.544C369.494 173.564 368.379 174.267 367.128 174.52C365.877 174.772 364.576 174.557 363.473 173.915Z" fill="#FFB8B8"/>
<path d="M345.5 90.1233C352.048 90.1233 357.357 84.8147 357.357 78.2662C357.357 71.7178 352.048 66.4092 345.5 66.4092C338.951 66.4092 333.643 71.7178 333.643 78.2662C333.643 84.8147 338.951 90.1233 345.5 90.1233Z" fill="#FFB8B8"/>
<path d="M363.397 160.574H327.65L327.693 160.296C327.758 159.88 334.064 118.567 329.413 105.051C328.946 103.723 328.987 102.269 329.528 100.969C330.069 99.6695 331.072 98.6158 332.343 98.0109C338.991 94.88 351.754 91.0248 362.525 100.381C364.11 101.78 365.348 103.529 366.141 105.49C366.933 107.45 367.259 109.568 367.092 111.675L363.397 160.574Z" fill="#00c05f"/>
<path d="M334.515 124.672L318.422 121.407L325.966 103.531C326.417 101.8 327.537 100.318 329.079 99.4109C330.622 98.5039 332.461 98.2458 334.193 98.693C335.926 99.1403 337.41 100.256 338.321 101.797C339.232 103.337 339.494 105.175 339.051 106.909L334.515 124.672Z" fill="#00c05f"/>
<path d="M355.127 130.735L354.16 108.557C353.426 104.388 355.813 100.446 359.483 99.8021C363.155 99.1602 366.74 102.052 367.477 106.252L371.114 126.975L355.127 130.735Z" fill="#00c05f"/>
<path d="M362.208 157.919C367.96 179.825 368.587 207.677 367.035 238.057L359.311 237.091L345.311 179.16L337.587 238.057L328.897 237.574C326.301 205.698 323.774 178.332 327.932 160.333L362.208 157.919Z" fill="#2F2E41"/>
<path d="M353.312 87.4293C351.1 89.7856 346.992 88.5207 346.704 85.3017C346.681 85.0518 346.683 84.8003 346.709 84.5507C346.857 83.1249 347.681 81.8303 347.484 80.3248C347.439 79.9502 347.3 79.5931 347.078 79.2874C345.316 76.9271 341.178 80.3432 339.514 78.2064C338.494 76.8962 339.693 74.8333 338.911 73.3689C337.877 71.4361 334.817 72.3896 332.898 71.3311C330.763 70.1534 330.891 66.8776 332.296 64.885C334.01 62.455 337.016 61.1583 339.984 60.9714C342.951 60.7846 345.899 61.5868 348.67 62.6666C351.818 63.8935 354.939 65.589 356.877 68.3572C359.233 71.7235 359.459 76.2493 358.281 80.1856C357.564 82.5801 355.118 85.5052 353.312 87.4293Z" fill="#2F2E41"/>
<path d="M455.509 250.863H99.0907C98.9386 250.862 98.7928 250.801 98.6854 250.694C98.5779 250.586 98.5176 250.44 98.5176 250.288C98.5176 250.136 98.5779 249.99 98.6854 249.882C98.7928 249.774 98.9386 249.713 99.0907 249.713H455.509C455.661 249.713 455.806 249.774 455.914 249.882C456.021 249.99 456.082 250.136 456.082 250.288C456.082 250.44 456.021 250.586 455.914 250.694C455.806 250.801 455.661 250.862 455.509 250.863Z" fill="#3F3D56"/>
<path d="M276.414 198.172H213.656C212.829 198.177 212.034 197.853 211.446 197.273C210.858 196.692 210.524 195.902 210.518 195.075V54.9936C210.524 54.1671 210.858 53.3768 211.446 52.7962C212.034 52.2156 212.829 51.8921 213.656 51.8965H276.414C277.241 51.8921 278.035 52.2156 278.623 52.7962C279.212 53.3768 279.546 54.1671 279.552 54.9936V195.075C279.546 195.902 279.212 196.692 278.623 197.273C278.035 197.853 277.241 198.177 276.414 198.172Z" fill="white"/>
<path d="M279.552 97.2227H210.518V98.1882H279.552V97.2227Z" fill="#3D4752"/>
<path d="M279.792 152.311H210.758V153.276H279.792V152.311Z" fill="#3D4752"/>
<path d="M233.208 51.8965H232.242V198.655H233.208V51.8965Z" fill="#3D4752"/>
<path d="M257.344 51.8965H256.379V198.655H257.344V51.8965Z" fill="#3D4752"/>
</g>
<defs>
<clipPath id="clip0_1905_7594">
<rect width="420" height="251.101" fill="white" transform="translate(50)"/>
</clipPath>
</defs>
</svg>
